<?xml version="1.0" encoding="utf-8"?>
<!-- Generator: Adobe Illustrator 16.0.0, SVG Export Plug-In . SVG Version: 6.00 Build 0)  -->
<!DOCTYPE svg PUBLIC "-//W3C//DTD SVG 1.1//EN" "http://www.w3.org/Graphics/SVG/1.1/DTD/svg11.dtd">
<svg version="1.1" id="Layer_1" xmlns="http://www.w3.org/2000/svg" xmlns:xlink="http://www.w3.org/1999/xlink" x="0px" y="0px"
	 width="64px" height="64.003px" viewBox="28.39 27.687 64 64.003" enable-background="new 28.39 27.687 64 64.003"
	 xml:space="preserve">
<g>
	<path fill="#191717" d="M60.39,27.687c-17.671,0-32,14.326-32,32c0,14.138,9.169,26.132,21.883,30.365
		c1.599,0.296,2.187-0.694,2.187-1.539c0-0.763-0.03-3.284-0.043-5.959c-8.902,1.937-10.781-3.775-10.781-3.775
		c-1.456-3.697-3.553-4.682-3.553-4.682c-2.903-1.986,0.219-1.945,0.219-1.945c3.213,0.226,4.905,3.298,4.905,3.298
		c2.854,4.893,7.486,3.478,9.312,2.66c0.288-2.067,1.116-3.48,2.032-4.279c-7.107-0.808-14.58-3.553-14.58-15.814
		c0-3.494,1.25-6.349,3.297-8.589c-0.332-0.806-1.428-4.061,0.31-8.469c0,0,2.687-0.859,8.802,3.281
		c2.552-0.709,5.29-1.064,8.01-1.077c2.719,0.012,5.458,0.368,8.016,1.077c6.108-4.14,8.791-3.281,8.791-3.281
		c1.742,4.408,0.646,7.663,0.314,8.469c2.052,2.241,3.293,5.096,3.293,8.589c0,12.291-7.485,14.997-14.611,15.79
		c1.147,0.992,2.171,2.94,2.171,5.925c0,4.282-0.037,7.729-0.037,8.782c0,0.852,0.576,1.85,2.198,1.535
		c12.708-4.236,21.865-16.227,21.865-30.36C92.389,42.013,78.063,27.687,60.39,27.687z"/>
	<path fill="#191717" d="M40.51,73.632c-0.07,0.159-0.32,0.207-0.548,0.098c-0.232-0.104-0.362-0.321-0.287-0.48
		c0.069-0.164,0.319-0.209,0.551-0.1C40.458,73.253,40.59,73.472,40.51,73.632L40.51,73.632z"/>
	<path fill="#191717" d="M41.806,75.078c-0.152,0.143-0.452,0.076-0.653-0.147c-0.21-0.224-0.249-0.521-0.094-0.665
		c0.157-0.142,0.446-0.075,0.656,0.147C41.925,74.638,41.966,74.934,41.806,75.078L41.806,75.078z"/>
	<path fill="#191717" d="M43.068,76.92c-0.196,0.137-0.517,0.009-0.715-0.276c-0.196-0.284-0.196-0.626,0.004-0.762
		c0.198-0.138,0.515-0.014,0.716,0.268C43.268,76.44,43.268,76.781,43.068,76.92L43.068,76.92z"/>
	<path fill="#191717" d="M44.796,78.702c-0.175,0.193-0.549,0.142-0.822-0.122c-0.28-0.258-0.358-0.625-0.183-0.818
		c0.178-0.193,0.554-0.14,0.829,0.122C44.898,78.141,44.983,78.51,44.796,78.702L44.796,78.702z"/>
	<path fill="#191717" d="M47.181,79.736c-0.077,0.25-0.437,0.364-0.799,0.257c-0.362-0.109-0.599-0.403-0.526-0.656
		c0.076-0.252,0.437-0.37,0.802-0.257C47.019,79.188,47.256,79.48,47.181,79.736L47.181,79.736z"/>
	<path fill="#191717" d="M49.8,79.927c0.009,0.264-0.298,0.481-0.679,0.487c-0.383,0.009-0.693-0.205-0.696-0.465
		c0-0.268,0.3-0.483,0.683-0.489C49.488,79.453,49.8,79.665,49.8,79.927L49.8,79.927z"/>
	<path fill="#191717" d="M52.237,79.512c0.045,0.257-0.219,0.521-0.597,0.592c-0.372,0.068-0.715-0.091-0.763-0.346
		c-0.046-0.264,0.223-0.528,0.594-0.597C51.85,79.096,52.188,79.25,52.237,79.512L52.237,79.512z"/>
</g>
</svg>
