<?xml version="1.0" encoding="utf-8"?>
<!-- Generator: Adobe Illustrator 16.0.0, SVG Export Plug-In . SVG Version: 6.00 Build 0)  -->
<!DOCTYPE svg PUBLIC "-//W3C//DTD SVG 1.1//EN" "http://www.w3.org/Graphics/SVG/1.1/DTD/svg11.dtd">
<svg version="1.1" id="Layer_1" xmlns="http://www.w3.org/2000/svg" xmlns:xlink="http://www.w3.org/1999/xlink" x="0px" y="0px"
	 width="64px" height="64px" viewBox="382.572 222.201 64 64" enable-background="new 382.572 222.201 64 64" xml:space="preserve">
<g>
	<polygon points="398.188,251.355 398.188,257.047 402.441,254.201 	"/>
	<polygon points="412.872,247.225 412.872,239.293 399.549,248.175 405.5,252.156 	"/>
	<polygon points="429.597,248.175 416.273,239.293 416.273,247.225 423.646,252.156 	"/>
	<polygon points="399.549,260.228 412.872,269.109 412.872,261.178 405.5,256.248 	"/>
	<polygon points="416.273,261.178 416.273,269.109 429.597,260.228 423.646,256.248 	"/>
	<polygon points="414.572,250.178 408.559,254.201 414.572,258.225 420.587,254.201 	"/>
	<path d="M414.572,222.201c-17.672,0-32,14.327-32,32c0,17.674,14.328,32,32,32c17.674,0,32-14.326,32-32
		C446.572,236.528,432.246,222.201,414.572,222.201z M434.358,260.229c0,0.075-0.006,0.149-0.016,0.223
		c-0.003,0.024-0.009,0.05-0.013,0.073c-0.01,0.048-0.018,0.096-0.03,0.143c-0.007,0.028-0.018,0.056-0.026,0.082
		c-0.014,0.042-0.027,0.084-0.044,0.125c-0.012,0.028-0.025,0.056-0.038,0.082c-0.018,0.039-0.036,0.076-0.058,0.114
		c-0.015,0.025-0.032,0.052-0.048,0.077c-0.023,0.036-0.047,0.07-0.072,0.104c-0.019,0.026-0.038,0.05-0.059,0.074
		c-0.026,0.031-0.055,0.062-0.084,0.091c-0.022,0.023-0.045,0.046-0.068,0.067c-0.03,0.027-0.063,0.055-0.097,0.081
		c-0.025,0.02-0.05,0.039-0.076,0.059c-0.01,0.006-0.019,0.014-0.028,0.021l-18.086,12.057c-0.285,0.19-0.614,0.286-0.943,0.286
		c-0.328,0-0.657-0.096-0.943-0.286l-18.086-12.057c-0.009-0.007-0.018-0.015-0.027-0.021c-0.026-0.02-0.052-0.039-0.076-0.059
		c-0.033-0.026-0.066-0.054-0.097-0.081c-0.023-0.021-0.046-0.044-0.068-0.067c-0.029-0.028-0.058-0.06-0.085-0.091
		c-0.02-0.024-0.039-0.048-0.059-0.074c-0.024-0.033-0.049-0.067-0.07-0.104c-0.018-0.025-0.033-0.052-0.049-0.077
		c-0.021-0.038-0.04-0.075-0.059-0.114c-0.013-0.026-0.025-0.054-0.037-0.082c-0.018-0.041-0.031-0.083-0.044-0.125
		c-0.01-0.026-0.019-0.054-0.026-0.082c-0.013-0.047-0.021-0.095-0.029-0.143c-0.005-0.023-0.012-0.049-0.014-0.073
		c-0.01-0.073-0.016-0.147-0.016-0.223v-12.057c0-0.075,0.006-0.149,0.016-0.222c0.002-0.025,0.009-0.049,0.014-0.074
		c0.008-0.048,0.017-0.096,0.029-0.143c0.008-0.028,0.017-0.055,0.026-0.082c0.013-0.042,0.026-0.083,0.044-0.124
		c0.012-0.028,0.024-0.056,0.037-0.083c0.019-0.039,0.037-0.076,0.059-0.112c0.016-0.027,0.031-0.053,0.049-0.079
		c0.021-0.036,0.046-0.07,0.07-0.104c0.02-0.025,0.039-0.05,0.059-0.074c0.027-0.031,0.056-0.062,0.085-0.091
		c0.022-0.023,0.045-0.046,0.068-0.067c0.03-0.028,0.063-0.055,0.097-0.081c0.024-0.02,0.05-0.04,0.076-0.059
		c0.01-0.006,0.019-0.015,0.027-0.021l18.086-12.057c0.572-0.381,1.315-0.381,1.887,0l18.086,12.057
		c0.01,0.006,0.019,0.015,0.028,0.021c0.026,0.019,0.052,0.039,0.076,0.058c0.033,0.026,0.066,0.053,0.097,0.081
		c0.023,0.021,0.046,0.044,0.068,0.067c0.029,0.029,0.058,0.06,0.084,0.091c0.021,0.024,0.04,0.049,0.059,0.074
		c0.025,0.033,0.049,0.067,0.072,0.103c0.016,0.026,0.033,0.052,0.048,0.079c0.021,0.036,0.04,0.074,0.058,0.112
		c0.013,0.027,0.026,0.055,0.038,0.083c0.017,0.041,0.03,0.083,0.044,0.124c0.009,0.027,0.02,0.054,0.026,0.083
		c0.013,0.047,0.021,0.095,0.03,0.143c0.004,0.025,0.01,0.049,0.013,0.074c0.01,0.073,0.016,0.147,0.016,0.222V260.229
		L434.358,260.229z"/>
	<polygon points="430.958,257.047 430.958,251.355 426.704,254.201 	"/>
</g>
</svg>
