<?xml version="1.0" encoding="utf-8"?>
<!-- Generator: Adobe Illustrator 16.0.0, SVG Export Plug-In . SVG Version: 6.00 Build 0)  -->
<!DOCTYPE svg PUBLIC "-//W3C//DTD SVG 1.1//EN" "http://www.w3.org/Graphics/SVG/1.1/DTD/svg11.dtd">
<svg version="1.1" id="Layer_1" xmlns="http://www.w3.org/2000/svg" xmlns:xlink="http://www.w3.org/1999/xlink" x="0px" y="0px"
	 width="349.999px" height="53.185px" viewBox="366.654 55.716 349.999 53.185"
	 enable-background="new 366.654 55.716 349.999 53.185" xml:space="preserve">
<g>
	<g>
		<path fill="#ECF0F1" d="M381.936,96.566L381.936,96.566l-3.224,8.541l-0.003,0.008c-0.005,0.014-0.011,0.026-0.016,0.04
			c-0.012,0.028-0.026,0.057-0.041,0.084c-0.045,0.084-0.102,0.159-0.167,0.224c0,0,0,0,0,0c0,0.001,0,0.001,0,0.001
			c-0.024,0.024-0.05,0.048-0.078,0.07c-0.001,0-0.003,0.001-0.004,0.003c-0.025,0.02-0.052,0.039-0.08,0.058
			c-0.003,0.002-0.006,0.003-0.009,0.005c-0.026,0.017-0.053,0.032-0.081,0.046c-0.031,0.016-0.062,0.03-0.095,0.042
			c0,0.001,0,0.001-0.001,0.001c0,0-0.001,0-0.001,0c-0.004,0.001-0.008,0.003-0.011,0.005c-0.002,0.001-0.005,0.001-0.007,0.002
			c-0.028,0.01-0.058,0.019-0.086,0.026c-0.001,0-0.002,0.001-0.004,0.001c0,0-0.001,0-0.002,0h0
			c-0.02,0.006-0.038,0.01-0.058,0.013c-0.017,0.004-0.034,0.006-0.05,0.008c-0.002,0-0.005,0-0.007,0.001
			c-0.04,0.005-0.079,0.007-0.117,0.007c-0.016,0-0.033,0-0.048-0.001c0,0-0.001,0-0.002,0c0,0-0.001,0-0.002,0s-0.002,0-0.003,0
			c0,0-0.001-0.001-0.001-0.001c-0.001,0-0.003,0-0.004,0h0c-0.018-0.001-0.036-0.003-0.054-0.005
			c-0.017-0.002-0.035-0.005-0.052-0.008c0,0,0,0,0,0c-0.001,0-0.003-0.001-0.004-0.001h0c-0.001,0-0.002,0-0.003,0
			s-0.001-0.001-0.002-0.001c0,0-0.001,0-0.002-0.001c-0.031-0.005-0.062-0.013-0.093-0.021c-0.011-0.003-0.021-0.007-0.032-0.011
			c-0.014-0.004-0.028-0.008-0.042-0.014c-0.011-0.004-0.021-0.008-0.031-0.012c0-0.001-0.001-0.001-0.002-0.002
			c-0.03-0.013-0.059-0.026-0.087-0.041c-0.028-0.016-0.055-0.032-0.081-0.049c0,0,0,0-0.001,0
			c-0.026-0.019-0.052-0.038-0.076-0.059c0,0,0,0,0,0c-0.025-0.021-0.049-0.042-0.072-0.064c0-0.001-0.001-0.001-0.001-0.001
			s0-0.001,0-0.001c-0.023-0.023-0.046-0.049-0.068-0.076c-0.001-0.001-0.002-0.003-0.003-0.005
			c-0.02-0.024-0.039-0.051-0.056-0.078c-0.002-0.002-0.004-0.006-0.006-0.009c-0.016-0.025-0.031-0.052-0.045-0.078
			c-0.015-0.03-0.029-0.062-0.041-0.094c-0.002-0.006-0.005-0.012-0.007-0.017l-0.001-0.005l-2.242-6.218l-2.733,6.28l0,0
			c-0.055,0.125-0.135,0.24-0.238,0.334c0,0,0,0,0,0.001c0,0,0,0-0.001,0c-0.022,0.021-0.045,0.039-0.069,0.058
			c-0.002,0.002-0.004,0.003-0.006,0.005c-0.021,0.017-0.045,0.031-0.068,0.047c-0.004,0.002-0.008,0.004-0.012,0.006
			c-0.021,0.014-0.043,0.026-0.066,0.038c-0.027,0.013-0.054,0.024-0.083,0.035c0,0.001-0.001,0.001-0.001,0.002
			c-0.001,0-0.001,0-0.001,0c-0.007,0.003-0.014,0.005-0.02,0.008c-0.017,0.006-0.033,0.011-0.049,0.016
			c0,0-0.001,0.001-0.001,0.001s-0.001,0-0.001,0c-0.001,0-0.003,0.001-0.004,0.001c-0.022,0.007-0.045,0.013-0.068,0.018
			c-0.022,0.005-0.044,0.009-0.066,0.012c-0.001,0-0.001,0.001-0.002,0.001c-0.047,0.007-0.094,0.01-0.141,0.01
			c-0.007,0-0.014,0-0.021,0c0,0-0.001,0-0.002,0h-0.001c-0.263-0.006-0.514-0.119-0.693-0.31c0-0.001,0-0.001-0.001-0.002l0,0
			c-0.021-0.023-0.042-0.048-0.062-0.074c-0.002-0.002-0.004-0.006-0.007-0.008c-0.017-0.023-0.033-0.047-0.048-0.07
			c-0.004-0.006-0.006-0.012-0.01-0.017c-0.013-0.022-0.025-0.044-0.037-0.067c-0.014-0.028-0.027-0.059-0.039-0.088
			c0-0.001,0-0.002-0.001-0.004c0,0,0-0.001,0-0.001c-0.001-0.003-0.002-0.006-0.003-0.008v-0.002l-3.08-8.547h0.001
			c-0.038-0.104-0.06-0.216-0.06-0.333c0-0.543,0.44-0.982,0.983-0.982c0.425,0,0.787,0.271,0.923,0.649h0l2.242,6.222l2.73-6.276
			v0.001c0-0.001,0-0.001,0-0.001v-0.001l0.002-0.004c0.004-0.008,0.007-0.016,0.011-0.024c0.003-0.007,0.008-0.015,0.011-0.021
			c0.008-0.016,0.016-0.031,0.024-0.046c0.007-0.013,0.015-0.025,0.023-0.038c0.008-0.013,0.017-0.026,0.025-0.039
			c0.01-0.014,0.021-0.027,0.031-0.041c0.008-0.011,0.016-0.021,0.024-0.03c0.013-0.016,0.026-0.03,0.04-0.044
			c0.007-0.008,0.015-0.017,0.023-0.024c0.004-0.003,0.006-0.007,0.011-0.011c0.008-0.009,0.018-0.016,0.027-0.023
			c0.013-0.012,0.025-0.022,0.039-0.033c0.012-0.009,0.025-0.019,0.038-0.027c0.015-0.011,0.03-0.021,0.046-0.031
			c0.012-0.008,0.023-0.015,0.035-0.021c0.018-0.011,0.036-0.021,0.055-0.03c0.011-0.005,0.021-0.011,0.033-0.016
			c0.02-0.009,0.041-0.018,0.062-0.025c0.007-0.002,0.013-0.006,0.02-0.008l0,0c0.001-0.001,0.002-0.001,0.004-0.001l0,0
			c0.004-0.002,0.008-0.003,0.012-0.004c0.013-0.005,0.027-0.009,0.041-0.013c0.016-0.004,0.032-0.009,0.048-0.012
			c0.013-0.003,0.025-0.006,0.037-0.008c0.021-0.004,0.041-0.007,0.062-0.01c0.009-0.001,0.018-0.003,0.026-0.003
			c0.032-0.003,0.062-0.005,0.094-0.005c0.01,0,0.02,0,0.03,0c0,0,0.001,0,0.001,0c0.001,0,0.001,0,0.001,0
			c0.014,0,0.027,0.003,0.041,0.004c0.014,0,0.027,0.001,0.041,0.003c0.018,0.002,0.034,0.005,0.051,0.008
			c0.017,0.003,0.033,0.005,0.049,0.009c0.014,0.003,0.027,0.007,0.041,0.011c0.019,0.005,0.037,0.01,0.055,0.016
			c0.012,0.004,0.022,0.009,0.034,0.013c0.019,0.007,0.038,0.015,0.057,0.022c0.011,0.006,0.021,0.011,0.032,0.017
			c0.018,0.008,0.035,0.018,0.052,0.027c0.012,0.007,0.023,0.014,0.034,0.021c0.016,0.009,0.031,0.02,0.045,0.029
			c0.013,0.009,0.025,0.019,0.037,0.028s0.025,0.02,0.037,0.029c0.013,0.011,0.026,0.022,0.038,0.034
			c0.01,0.01,0.021,0.021,0.031,0.031c0.006,0.006,0.013,0.011,0.018,0.018c0.007,0.008,0.013,0.016,0.02,0.023
			c0.007,0.01,0.015,0.019,0.022,0.028c0.011,0.014,0.022,0.028,0.033,0.043c0.008,0.011,0.016,0.022,0.023,0.033
			c0.009,0.014,0.017,0.027,0.024,0.04c0.008,0.015,0.016,0.027,0.023,0.041c0.007,0.013,0.012,0.025,0.018,0.038
			c0.007,0.016,0.015,0.031,0.021,0.047c0.001,0.003,0.002,0.006,0.003,0.008c0,0.002,0.001,0.003,0.001,0.004c0,0,0,0,0,0.001
			c0.003,0.007,0.006,0.015,0.009,0.022l0.001,0.004l2.177,6.039l2.287-6.057h0.001c0.14-0.371,0.498-0.636,0.918-0.636
			c0.543,0,0.982,0.439,0.982,0.982C382,96.342,381.977,96.459,381.936,96.566z"/>
		<path fill="#ECF0F1" d="M386.074,100.8h2.218c-0.312-0.709-0.958-1.157-1.829-1.157c-1.059,0-1.977,0.951-1.977,2.14
			c0,0.365,0.066,0.693,0.184,0.971c0.118,0.278,0.284,0.507,0.499,0.69c0.144,0.122,0.31,0.225,0.508,0.305
			c0.264,0.106,0.587,0.174,0.982,0.174c0.001,0,0.002,0,0.004,0c0.245,0,0.521-0.053,0.781-0.155
			c0.263-0.102,0.508-0.251,0.7-0.424l0,0.001c0.174-0.156,0.403-0.251,0.655-0.251c0.542,0,0.982,0.439,0.982,0.982
			c0,0.29-0.127,0.551-0.327,0.73l0,0.001c-0.008,0.007-0.018,0.014-0.026,0.021c-0.002,0.002-0.005,0.005-0.007,0.007
			c-0.375,0.329-0.806,0.584-1.266,0.764c-0.474,0.184-0.98,0.288-1.498,0.289c0,0,0,0-0.001,0c-0.523,0-1.017-0.076-1.47-0.227
			c-0.453-0.149-0.864-0.373-1.216-0.657c-0.235-0.188-0.443-0.403-0.623-0.639c-0.239-0.313-0.427-0.661-0.562-1.028
			c-0.18-0.491-0.268-1.017-0.268-1.555c0-2.262,1.789-4.104,3.941-4.104h0.001c0.001,0,0.003,0,0.004,0
			c2.333,0,3.988,1.814,3.988,4.104c0,0.543-0.44,0.982-0.983,0.982h-3.399c-0.542,0-0.982-0.439-0.982-0.982
			S385.531,100.8,386.074,100.8z"/>
		<path fill="#ECF0F1" d="M399.605,104.159c-1.207,1.829-3.62,2.336-5.431,1.17c-0.164,0.313-0.492,0.529-0.872,0.529
			c-0.542,0-0.982-0.44-0.982-0.982c0-0.002,0-0.004,0-0.006h0v-8.91c0-0.543,0.44-0.983,0.982-0.983
			c0.543,0,0.983,0.44,0.983,0.983v2.444c0.61-0.365,1.302-0.557,2.013-0.557C399.47,97.848,401.381,101.465,399.605,104.159z
			 M397.964,100.725c-1.107-1.681-3.667-0.885-3.679,1.164v0.024c0.007,1.144,0.9,2.076,2.014,2.076
			C397.914,103.989,398.876,102.108,397.964,100.725z"/>
		<path fill="#ECF0F1" d="M416.684,104.808L416.684,104.808c0,0.002,0,0.004,0,0.006c0,0.542-0.439,0.982-0.982,0.982
			c-0.398,0-0.741-0.238-0.895-0.579c-0.652,0.441-1.414,0.676-2.2,0.676c-3.2,0-5.066-3.642-3.305-6.312
			c0.72-1.093,1.94-1.796,3.304-1.796c0.757,0,1.484,0.216,2.114,0.618v-2.507c0-0.542,0.439-0.982,0.982-0.982
			s0.982,0.44,0.982,0.982C416.684,95.897,416.684,104.807,416.684,104.808z M414.271,100.662c-1.111-1.685-3.679-0.88-3.679,1.177
			c0,1.157,0.904,2.088,2.014,2.088C414.219,103.927,415.183,102.047,414.271,100.662z"/>
		<path fill="#ECF0F1" d="M422.381,100.8h2.218c-0.312-0.709-0.958-1.157-1.829-1.157c-1.059,0-1.977,0.951-1.978,2.14
			c0,0.365,0.067,0.693,0.185,0.971c0.118,0.278,0.284,0.507,0.499,0.69c0.144,0.122,0.31,0.225,0.508,0.305
			c0.264,0.106,0.587,0.174,0.982,0.174c0.001,0,0.002,0,0.004,0c0.245,0,0.52-0.053,0.781-0.155c0.262-0.102,0.509-0.251,0.7-0.424
			l0.001,0.001c0.174-0.156,0.403-0.251,0.655-0.251c0.542,0,0.982,0.439,0.982,0.982c0,0.29-0.127,0.551-0.327,0.73l0,0.001
			c-0.008,0.007-0.018,0.014-0.026,0.021c-0.002,0.002-0.005,0.005-0.007,0.007c-0.375,0.329-0.806,0.584-1.266,0.764
			c-0.474,0.184-0.98,0.288-1.498,0.289c0,0,0,0-0.001,0c-0.523,0-1.017-0.076-1.47-0.227c-0.453-0.149-0.864-0.373-1.216-0.657
			c-0.235-0.188-0.443-0.403-0.623-0.639c-0.24-0.313-0.427-0.661-0.562-1.028c-0.18-0.491-0.267-1.017-0.267-1.555
			c-0.001-2.262,1.789-4.104,3.941-4.104c0,0,0.001,0,0.001,0c0.001,0,0.002,0,0.003,0c2.333,0,3.988,1.814,3.988,4.104
			c0,0.543-0.439,0.982-0.982,0.982h-3.399c-0.542,0-0.982-0.439-0.982-0.982S421.839,100.8,422.381,100.8z"/>
		<path fill="#ECF0F1" d="M432.58,105.147c-0.006,0.014-0.012,0.026-0.019,0.04h0c-0.007,0.014-0.012,0.027-0.02,0.04
			c-0.138,0.258-0.388,0.448-0.686,0.504c-0.209,0.043-0.435,0.017-0.648-0.101c-0.003-0.002-0.006-0.004-0.009-0.006
			c-0.021-0.012-0.043-0.025-0.064-0.039c-0.011-0.007-0.022-0.016-0.033-0.022c-0.011-0.009-0.022-0.016-0.033-0.024
			c-0.004-0.003-0.008-0.007-0.013-0.011c-0.005-0.004-0.01-0.008-0.015-0.013c-0.02-0.017-0.039-0.033-0.057-0.052
			c-0.002-0.002-0.005-0.005-0.007-0.007c-0.02-0.02-0.039-0.041-0.057-0.062c-0.002-0.002-0.004-0.004-0.006-0.006
			c-0.018-0.021-0.034-0.044-0.05-0.066c-0.002-0.004-0.004-0.006-0.006-0.009c-0.015-0.023-0.03-0.047-0.043-0.071
			c-0.001-0.003-0.003-0.006-0.005-0.009c-0.009-0.016-0.016-0.032-0.024-0.048v0.001l-2.834-5.889h0.001
			c-0.062-0.129-0.098-0.273-0.098-0.426c0-0.543,0.439-0.982,0.982-0.982c0.39,0,0.726,0.228,0.884,0.557l0.001-0.001l1.953,4.057
			l1.953-4.057l0.001,0.001c0.159-0.33,0.494-0.557,0.884-0.557c0.543,0,0.982,0.439,0.982,0.982c0,0.152-0.036,0.297-0.098,0.425
			l0.001,0.001L432.58,105.147z"/>
		<path fill="#ECF0F1" d="M440.216,100.8h2.218c-0.312-0.709-0.958-1.157-1.829-1.157c-1.059,0-1.977,0.951-1.977,2.14
			c0,0.365,0.067,0.693,0.184,0.971c0.118,0.278,0.284,0.507,0.499,0.69c0.144,0.122,0.31,0.225,0.508,0.305
			c0.265,0.106,0.587,0.174,0.983,0.174c0.001,0,0.002,0,0.003,0c0.246,0,0.521-0.053,0.782-0.155
			c0.262-0.102,0.508-0.251,0.7-0.424l0.001,0.001c0.174-0.156,0.403-0.251,0.655-0.251c0.542,0,0.982,0.439,0.982,0.982
			c0,0.29-0.127,0.551-0.328,0.73l0,0.001c-0.008,0.007-0.018,0.014-0.025,0.021c-0.003,0.002-0.005,0.005-0.008,0.007
			c-0.375,0.329-0.806,0.584-1.266,0.764c-0.475,0.184-0.981,0.288-1.498,0.289c0,0,0,0-0.001,0c-0.523,0-1.017-0.076-1.47-0.227
			c-0.454-0.149-0.865-0.373-1.216-0.657c-0.235-0.188-0.443-0.403-0.623-0.639c-0.239-0.313-0.427-0.661-0.562-1.028
			c-0.181-0.491-0.268-1.017-0.268-1.555c-0.001-2.262,1.789-4.104,3.941-4.104c0,0,0.001,0,0.001,0c0.001,0,0.002,0,0.003,0
			c2.333,0,3.988,1.814,3.988,4.104c0,0.543-0.439,0.982-0.982,0.982h-3.399c-0.543,0-0.982-0.439-0.982-0.982
			S439.673,100.8,440.216,100.8z"/>
		<path fill="#ECF0F1" d="M449.792,105.799L449.792,105.799c-0.01,0.003-0.02,0.003-0.03,0.004c0,0-0.001,0.001-0.002,0.001
			c-0.226,0.029-0.441,0.044-0.647,0.044c-0.85,0-1.536-0.247-2.044-0.738c-0.804-0.775-0.802-1.84-0.785-2.129v-7.14V95.84
			c0-0.543,0.44-0.982,0.982-0.982c0.543,0,0.982,0.439,0.982,0.982v7.24l-0.004,0.026c-0.005,0.113,0.02,0.432,0.193,0.594
			c0.181,0.169,0.568,0.223,1.091,0.152v0.001c0.043-0.006,0.087-0.01,0.132-0.01c0.543,0,0.982,0.439,0.982,0.982
			C450.643,105.324,450.272,105.734,449.792,105.799z"/>
		<path fill="#ECF0F1" d="M460.271,101.896c0,2.269-1.872,4.107-4.176,4.107c0,0-0.001,0-0.001,0c-2.31,0-4.176-1.846-4.175-4.107
			c0-0.425,0.066-0.839,0.189-1.228c0.124-0.388,0.303-0.75,0.53-1.078c0.453-0.654,1.089-1.171,1.838-1.481
			c0.499-0.207,1.047-0.32,1.619-0.32c0,0,0,0,0.001,0c0.428,0,0.844,0.063,1.235,0.184c0.392,0.119,0.759,0.293,1.091,0.514
			c0.666,0.439,1.197,1.063,1.517,1.804C460.152,100.783,460.271,101.328,460.271,101.896z M458.305,101.896
			c0-0.222-0.034-0.433-0.097-0.631c-0.063-0.199-0.156-0.387-0.274-0.558c-0.236-0.344-0.575-0.619-0.973-0.783
			c-0.265-0.109-0.556-0.17-0.867-0.17c-0.233,0-0.455,0.034-0.664,0.098s-0.403,0.155-0.58,0.272
			c-0.354,0.234-0.632,0.564-0.797,0.945c-0.11,0.254-0.17,0.53-0.17,0.826c0.001,1.181,0.986,2.142,2.211,2.142
			C457.308,104.037,458.305,103.088,458.305,101.896z"/>
		<path fill="#ECF0F1" d="M470.055,101.943c0,2.194-1.779,3.973-3.973,3.973c-0.738,0-1.429-0.201-2.021-0.551v2.553
			c0,0.543-0.44,0.982-0.982,0.982c-0.543,0-0.983-0.439-0.983-0.982v-8.91h0c0-0.002,0-0.005,0-0.007
			c0-0.542,0.44-0.982,0.983-0.982c0.392,0,0.729,0.23,0.887,0.562c0.612-0.386,1.338-0.609,2.117-0.609
			C468.276,97.971,470.055,99.749,470.055,101.943z M468.103,101.943c0-1.115-0.905-2.021-2.021-2.021
			c-1.117,0-2.021,0.905-2.021,2.021c0,1.116,0.904,2.021,2.021,2.021C467.198,103.964,468.103,103.061,468.103,101.943z"/>
		<path fill="#ECF0F1" d="M475.264,100.8h2.219c-0.313-0.709-0.958-1.157-1.829-1.157c-1.059,0-1.977,0.951-1.977,2.14
			c0,0.365,0.067,0.693,0.185,0.971c0.118,0.278,0.284,0.507,0.498,0.69c0.144,0.122,0.31,0.225,0.508,0.305
			c0.265,0.106,0.587,0.174,0.983,0.174c0.001,0,0.002,0,0.003,0c0.246,0,0.521-0.053,0.782-0.155
			c0.262-0.102,0.508-0.251,0.7-0.424l0.001,0.001c0.174-0.156,0.403-0.251,0.655-0.251c0.542,0,0.982,0.439,0.982,0.982
			c0,0.29-0.127,0.551-0.328,0.73l0,0.001c-0.008,0.007-0.018,0.014-0.025,0.021c-0.003,0.002-0.005,0.005-0.008,0.007
			c-0.375,0.329-0.806,0.584-1.266,0.764c-0.474,0.184-0.98,0.288-1.497,0.289c0,0,0,0-0.001,0c-0.523,0-1.017-0.076-1.471-0.227
			c-0.453-0.149-0.864-0.373-1.216-0.657c-0.235-0.188-0.443-0.403-0.623-0.639c-0.239-0.313-0.427-0.661-0.562-1.028
			c-0.18-0.491-0.268-1.017-0.268-1.555c0-2.262,1.789-4.104,3.941-4.104c0,0,0.001,0,0.001,0c0.001,0,0.002,0,0.004,0
			c2.333,0,3.988,1.814,3.988,4.104c0,0.543-0.439,0.982-0.982,0.982h-3.399c-0.543,0-0.982-0.439-0.982-0.982
			S474.721,100.8,475.264,100.8z"/>
		<path fill="#ECF0F1" d="M487.162,99.13c0,0.543-0.44,0.982-0.983,0.982c-0.117,0-0.229-0.021-0.333-0.059l0,0.001
			c-0.494-0.177-1.15-0.338-1.651-0.186c-0.764,0.234-0.904,1.245-0.904,1.509v3.403h0c0,0.002,0,0.005,0,0.007
			c0,0.542-0.44,0.982-0.982,0.982c-0.543,0-0.982-0.44-0.982-0.982c0-0.002,0-0.005,0-0.007l0,0v-3.399v-0.001
			c0-0.001,0-0.001,0-0.002v-2.558c0-0.542,0.439-0.982,0.982-0.982c0.314,0,0.594,0.147,0.774,0.378c0,0,0,0,0,0l0,0
			c0.822-0.434,1.944-0.533,3.387-0.025c0.002,0,0.003,0.001,0.005,0.002c0.011,0.004,0.022,0.007,0.033,0.011l0,0.001
			C486.889,98.34,487.162,98.702,487.162,99.13z"/>
		<path fill="#ECF0F1" d="M504.458,104.836c0,0.543-0.439,0.983-0.982,0.983c-0.278,0-0.529-0.116-0.707-0.302l-0.788-0.808
			c-0.806,0.778-1.797,1.373-2.923,1.373h-0.001c-0.675,0-1.315-0.149-1.878-0.419c-2.717-1.306-2.698-4.768,0.07-6.031
			c0.125,0.214,0.245,0.391,0.377,0.56c-0.032-0.042-0.065-0.086-0.098-0.131c-0.095-0.131-0.189-0.274-0.28-0.429
			c-0.047-0.081-0.093-0.166-0.138-0.254c-0.085-0.169-0.163-0.351-0.227-0.546c-0.083-0.26-0.144-0.545-0.145-0.858
			c0-0.243,0.024-0.498,0.083-0.761c0.059-0.262,0.152-0.531,0.298-0.795c0.098-0.175,0.219-0.346,0.368-0.504
			c0.198-0.211,0.448-0.396,0.735-0.529c0.164-0.076,0.34-0.135,0.523-0.176c0.203-0.045,0.415-0.067,0.634-0.069
			c0.022-0.001,0.051-0.002,0.087-0.002c0.102,0,0.256,0.006,0.447,0.032c0.191,0.025,0.419,0.072,0.668,0.159
			c0.166,0.059,0.341,0.137,0.517,0.24c0.235,0.138,0.473,0.325,0.68,0.571c0.118,0.141,0.227,0.299,0.318,0.475
			c0.104,0.199,0.188,0.42,0.246,0.657c0.066,0.271,0.1,0.562,0.1,0.872c0,0.289-0.038,0.59-0.124,0.891s-0.222,0.601-0.419,0.882
			c-0.131,0.186-0.29,0.362-0.473,0.52c-0.157,0.134-0.332,0.254-0.523,0.356l0.928,0.95c0.229-0.363,0.448-0.757,0.656-1.171h0.001
			c0.161-0.321,0.493-0.542,0.877-0.542c0.542,0,0.982,0.439,0.982,0.982c0,0.158-0.038,0.308-0.105,0.44h0
			c-0.004,0.01-0.009,0.019-0.014,0.027c0,0,0,0,0,0.001c-0.303,0.601-0.634,1.175-0.993,1.703l0.941,0.965l-0.001,0.001
			C504.352,104.327,504.458,104.569,504.458,104.836z M499.057,104.118c0.532,0,1.071-0.352,1.551-0.816l-2-2.05l-0.296-0.304
			l-0.032-0.033c-0.001-0.002-0.002-0.003-0.004-0.005c-0.012-0.013-0.025-0.025-0.037-0.038l-0.286-0.3
			c-0.002-0.003-0.005-0.006-0.007-0.009c0.179,0.195,0.391,0.41,0.662,0.688c-1.45,0.265-2.051,1.657-0.851,2.484
			C498.101,103.972,498.555,104.118,499.057,104.118L499.057,104.118z M497.651,100.223c-0.001-0.001-0.001-0.001-0.001-0.002
			C497.65,100.222,497.65,100.222,497.651,100.223z M498.823,98.402c0.113,0.255,0.308,0.558,0.565,0.827
			c1.389-0.158,1.161-1.478,0.903-1.806c-0.196-0.247-0.597-0.323-0.836-0.319C498.522,97.104,498.701,98.133,498.823,98.402z
			 M498.983,99.247c-0.007,0-0.015,0-0.022,0c0.006,0,0.013,0,0.02,0C498.981,99.247,498.982,99.247,498.983,99.247L498.983,99.247
			L498.983,99.247z"/>
		<path fill="#ECF0F1" d="M520.761,104.808L520.761,104.808c0,0.002,0,0.004,0,0.006c0,0.542-0.44,0.982-0.982,0.982
			c-0.398,0-0.741-0.238-0.896-0.579c-0.652,0.441-1.414,0.676-2.2,0.676c-3.2,0-5.066-3.642-3.306-6.312
			c0.721-1.093,1.94-1.796,3.305-1.796c0.757,0,1.484,0.216,2.114,0.618v-2.507c0-0.542,0.439-0.982,0.982-0.982
			c0.542,0,0.982,0.44,0.982,0.982C520.761,95.897,520.761,104.807,520.761,104.808z M518.349,100.662
			c-1.111-1.685-3.679-0.88-3.68,1.177c0,1.157,0.904,2.088,2.014,2.088C518.296,103.927,519.261,102.047,518.349,100.662z"/>
		<path fill="#ECF0F1" d="M526.459,100.8h2.219c-0.313-0.709-0.958-1.157-1.829-1.157c-1.059,0-1.977,0.951-1.977,2.14
			c0,0.365,0.067,0.693,0.185,0.971c0.118,0.278,0.284,0.507,0.498,0.69c0.144,0.122,0.31,0.225,0.508,0.305
			c0.265,0.106,0.587,0.174,0.982,0.174c0.002,0,0.003,0,0.004,0c0.246,0,0.521-0.053,0.782-0.155
			c0.262-0.102,0.508-0.251,0.7-0.424l0.001,0.001c0.174-0.156,0.403-0.251,0.655-0.251c0.543,0,0.983,0.439,0.983,0.982
			c0,0.29-0.127,0.551-0.328,0.73l0,0.001c-0.008,0.007-0.018,0.014-0.025,0.021c-0.003,0.002-0.005,0.005-0.008,0.007
			c-0.375,0.329-0.806,0.584-1.266,0.764c-0.475,0.184-0.98,0.288-1.498,0.289c0,0,0,0-0.001,0c-0.522,0-1.017-0.076-1.47-0.227
			c-0.453-0.149-0.864-0.373-1.216-0.657c-0.235-0.188-0.443-0.403-0.623-0.639c-0.239-0.313-0.427-0.661-0.562-1.028
			c-0.181-0.491-0.268-1.017-0.268-1.555c0-2.262,1.789-4.104,3.941-4.104c0,0,0.001,0,0.001,0c0.001,0,0.002,0,0.004,0
			c2.333,0,3.988,1.814,3.988,4.104c0,0.543-0.439,0.982-0.982,0.982h-3.399c-0.543,0-0.982-0.439-0.982-0.982
			S525.917,100.8,526.459,100.8z"/>
		<path fill="#ECF0F1" d="M538.763,103.412c0,1.376-1.075,2.506-2.914,2.506c-1.06,0-1.914-0.316-2.773-0.86
			c-0.328-0.158-0.555-0.494-0.555-0.883c0-0.543,0.44-0.982,0.983-0.982c0.197,0,0.38,0.059,0.534,0.158l0.004-0.007
			c0.549,0.359,1.079,0.61,1.808,0.61c0.436,0,0.948-0.106,0.949-0.541v-0.001c0-0.048-0.007-0.07-0.012-0.086
			c-0.113-0.305-1.104-0.536-1.418-0.603c-1.411-0.32-2.61-1.017-2.614-2.456c0-0.004,0-0.006,0-0.009
			c0-0.005,0.001-0.009,0.001-0.015h-0.001c0-2.148,2.18-2.954,4.218-2.243c0.33,0.116,0.639,0.259,0.923,0.406l0,0
			c0.315,0.164,0.531,0.492,0.531,0.872c0,0.542-0.439,0.982-0.982,0.982c0,0,0,0,0,0l0,0c-0.028,0-0.055-0.001-0.082-0.004
			c-0.125-0.01-0.242-0.044-0.349-0.097c-0.375-0.157-0.774-0.442-1.467-0.442c-0.786,0-0.827,0.27-0.827,0.542
			c0,0.041,0.006,0.055,0.01,0.066c0.058,0.145,0.398,0.284,0.545,0.336C535.92,100.892,538.765,101.154,538.763,103.412z"/>
		<path fill="#ECF0F1" d="M540.863,95.852c0-0.543,0.44-0.982,0.982-0.982s0.982,0.439,0.982,0.982s-0.439,0.982-0.982,0.982
			S540.863,96.395,540.863,95.852z M542.827,98.832v5.937c0,0.542-0.439,0.982-0.982,0.982s-0.982-0.44-0.982-0.982v-5.937
			c0-0.543,0.44-0.982,0.982-0.982S542.827,98.289,542.827,98.832z"/>
		<path fill="#ECF0F1" d="M552.651,105.86c-0.331,1.308-1.262,2.361-2.679,2.707c-0.003,0.001-0.005,0.002-0.007,0.002
			c-1.312,0.317-3.283,0.134-4.581-0.838h0.001c-0.238-0.18-0.394-0.464-0.394-0.786c0-0.543,0.439-0.982,0.982-0.982l0,0
			c0.161,0,0.275,0.029,0.379,0.075c0.077,0.033,0.149,0.076,0.216,0.127c0.198,0.13,0.441,0.301,0.968,0.438
			c0.692,0.181,1.487,0.173,1.969,0.055c0.748-0.184,1.179-0.775,1.276-1.458c0.007-0.052,0.009-0.091,0.009-0.094v-0.182
			c-2.009,1.083-4.661,0.339-5.62-1.713c-1.128-2.406,0.766-5.136,3.631-5.136c0.745,0,1.467,0.192,2.093,0.554h0.001
			c0.161-0.321,0.493-0.544,0.878-0.544c0.543,0,0.982,0.44,0.982,0.983c0,0,0,0.087,0,0.24c0,0.154,0,0.374,0,0.64
			c0,0.446,0,1.022,0,1.627c0.004,0.058,0.005,0.114,0.005,0.173c0,0.058-0.001,0.114-0.005,0.172
			C552.757,105.368,552.794,105.295,552.651,105.86z M550.791,101.86v-0.224v-0.001c-0.05-0.668-0.55-1.207-1.181-1.448
			c-1.776-0.678-3.557,1.047-2.487,2.477c0.352,0.473,0.97,0.792,1.68,0.792C549.871,103.456,550.726,102.735,550.791,101.86
			C550.792,101.86,550.791,101.86,550.791,101.86z"/>
		<path fill="#ECF0F1" d="M561.883,104.769c0,0.025-0.002,0.049-0.004,0.073v0.007l0,0c-0.041,0.505-0.463,0.902-0.979,0.902
			c-0.515,0-0.937-0.397-0.978-0.902h-0.005v-3.594c0-0.161-0.024-0.312-0.07-0.455c-0.542-1.707-3.174-1.298-3.175,0.455v3.508
			c0,0.001,0,0.002,0,0.003s0,0.002,0,0.003c0,0.543-0.44,0.982-0.983,0.982c-0.542,0-0.982-0.439-0.982-0.982
			c0-0.001,0-0.002,0-0.003s0-0.002,0-0.003v-3.508l0,0v-2.553c0-0.543,0.44-0.982,0.982-0.982c0.357,0,0.67,0.191,0.842,0.477
			h0.001c2.373-1.314,5.352,0.352,5.351,3.059c0,0.025-0.002,0.05-0.003,0.074v3.366
			C561.881,104.719,561.883,104.743,561.883,104.769z"/>
		<path fill="#ECF0F1" d="M567.09,100.8h2.219c-0.313-0.709-0.958-1.157-1.829-1.157c-1.059,0-1.977,0.951-1.978,2.14
			c0,0.365,0.067,0.693,0.185,0.971c0.118,0.278,0.284,0.507,0.498,0.69c0.145,0.122,0.311,0.225,0.509,0.305
			c0.265,0.106,0.587,0.174,0.982,0.174c0.002,0,0.003,0,0.004,0c0.245,0,0.521-0.053,0.781-0.155
			c0.263-0.102,0.509-0.251,0.7-0.424l0.001,0.001c0.174-0.156,0.403-0.251,0.655-0.251c0.542,0,0.982,0.439,0.982,0.982
			c0,0.29-0.127,0.551-0.328,0.73l0.001,0.001c-0.009,0.007-0.018,0.014-0.025,0.021c-0.003,0.002-0.006,0.005-0.008,0.007
			c-0.376,0.329-0.806,0.584-1.266,0.764c-0.475,0.184-0.98,0.288-1.498,0.289c0,0,0,0-0.001,0c-0.522,0-1.017-0.076-1.471-0.227
			c-0.452-0.149-0.863-0.373-1.216-0.657c-0.234-0.188-0.443-0.403-0.622-0.639c-0.239-0.313-0.427-0.661-0.562-1.028
			c-0.181-0.491-0.268-1.017-0.268-1.555c-0.001-2.262,1.788-4.104,3.94-4.104c0.001,0,0.001,0,0.002,0s0.002,0,0.004,0
			c2.333,0,3.988,1.814,3.988,4.104c0,0.543-0.44,0.982-0.982,0.982h-3.399c-0.543,0-0.982-0.439-0.982-0.982
			S566.547,100.8,567.09,100.8z"/>
		<path fill="#ECF0F1" d="M578.987,99.13c0,0.543-0.439,0.982-0.982,0.982c-0.117,0-0.229-0.021-0.333-0.059v0.001
			c-0.494-0.177-1.15-0.338-1.65-0.186c-0.765,0.234-0.904,1.245-0.904,1.509v3.403l0,0c0,0.002,0,0.005,0,0.007
			c0,0.542-0.439,0.982-0.982,0.982s-0.982-0.44-0.982-0.982c0-0.002,0-0.005,0-0.007l0,0v-3.399v-0.001c0-0.001,0-0.001,0-0.002
			v-2.558c0-0.542,0.439-0.982,0.982-0.982c0.314,0,0.594,0.147,0.773,0.378h0.001l0,0c0.822-0.434,1.944-0.533,3.387-0.025
			c0.002,0,0.004,0.001,0.006,0.002c0.011,0.004,0.021,0.007,0.032,0.011v0.001C578.714,98.34,578.987,98.702,578.987,99.13z"/>
	</g>
</g>
<g>
	<g>
		<path fill="#ECF0F1" d="M373.074,86.853h-0.003c0,0.019,0.003,0.035,0.003,0.054c0,1.772-1.438,3.209-3.21,3.209
			c-1.772,0-3.21-1.437-3.21-3.209c0-0.019,0.002-0.035,0.003-0.054h-0.003V58.926c0-1.773,1.438-3.21,3.21-3.21
			c1.773,0,3.211,1.437,3.211,3.21L373.074,86.853L373.074,86.853z"/>
		<path fill="#ECF0F1" d="M411.112,72.995c0,0.001,0,0.002,0,0.003c0,0.001,0,0.002,0,0.004
			c-0.008,9.562-6.802,17.156-16.201,17.156c-0.003,0-12.534,0-12.537,0h0c-1.773,0-3.21-1.437-3.21-3.21V59.021
			c0-0.006,0.001-0.013,0.001-0.019c0-0.007-0.001-0.013-0.001-0.019c0-1.773,1.438-3.21,3.21-3.21c0.159,0,0.313,0.016,0.466,0.038
			h12.062c0.004,0,0.009,0,0.013,0c2.652,0,5.147,0.615,7.319,1.73c2.178,1.116,4.027,2.724,5.453,4.653
			c0.951,1.287,1.717,2.716,2.281,4.245c0.752,2.038,1.145,4.251,1.145,6.546C411.113,72.988,411.113,72.992,411.112,72.995z
			 M404.693,72.985c0-1.757-0.339-3.384-0.938-4.806c-0.601-1.422-1.46-2.636-2.512-3.587c-0.703-0.634-1.492-1.153-2.365-1.543
			c-1.165-0.52-2.48-0.816-3.975-0.817h-9.318v21.507c3.433,0,8.373,0,9.318,0C400.918,83.731,404.692,78.829,404.693,72.985z"/>
		<path fill="#ECF0F1" d="M448.399,86.948c0,1.772-1.437,3.209-3.21,3.209c-1.25,0-2.33-0.715-2.86-1.757l-0.002,0.001l-3.312-6.521
			h-8.677c-1.773,0-3.21-1.437-3.21-3.21s1.437-3.21,3.21-3.21h5.417l-4.75-9.351l-11.323,22.292L419.68,88.4
			c-0.531,1.042-1.611,1.757-2.86,1.757c-1.773,0-3.21-1.438-3.21-3.21c0-0.523,0.128-1.016,0.35-1.452l-0.002-0.001l14.061-27.682
			c0.468-1.193,1.627-2.039,2.986-2.039c1.359,0,2.519,0.846,2.986,2.039l14.061,27.682l-0.002,0.001
			C448.271,85.932,448.399,86.425,448.399,86.948z"/>
		<path fill="#ECF0F1" d="M483.271,86.948C483.271,86.949,483.271,86.949,483.271,86.948c0,0.039-0.001,0.076-0.002,0.114h-0.003
			c-0.061,1.72-1.47,3.096-3.204,3.096c-0.987,0-1.868-0.445-2.457-1.145v0.002l-18.023-21.247v19.181
			c0,1.772-1.437,3.209-3.21,3.209c-1.772,0-3.21-1.437-3.21-3.209V59.021c0-0.041,0.001-0.081,0.002-0.121
			c0.001-0.035,0.007-0.069,0.009-0.104c0.004-0.054,0.007-0.107,0.014-0.16s0.015-0.103,0.023-0.153
			c0.009-0.055,0.019-0.108,0.03-0.163c0.011-0.048,0.024-0.096,0.037-0.144c0.015-0.053,0.029-0.106,0.046-0.159
			c0.016-0.047,0.033-0.092,0.051-0.137c0.02-0.051,0.038-0.102,0.061-0.151c0.02-0.045,0.042-0.089,0.063-0.133
			c0.023-0.047,0.047-0.095,0.073-0.141c0.025-0.044,0.052-0.086,0.079-0.129c0.027-0.043,0.054-0.087,0.083-0.129
			c0.03-0.042,0.062-0.084,0.093-0.125c0.03-0.04,0.06-0.079,0.091-0.117c0.035-0.041,0.072-0.08,0.109-0.119
			c0.032-0.035,0.063-0.07,0.097-0.103c0.04-0.04,0.082-0.076,0.124-0.113c0.034-0.03,0.067-0.062,0.103-0.09
			c0.045-0.036,0.091-0.07,0.139-0.104c0.035-0.025,0.07-0.053,0.106-0.077c0.049-0.033,0.101-0.063,0.153-0.094
			c0.036-0.021,0.072-0.044,0.11-0.064c0.053-0.029,0.109-0.054,0.165-0.08c0.038-0.018,0.075-0.037,0.113-0.053
			c0.058-0.024,0.118-0.044,0.178-0.065c0.038-0.014,0.075-0.029,0.114-0.041c0.063-0.02,0.128-0.034,0.192-0.049
			c0.038-0.009,0.074-0.021,0.112-0.028c0.073-0.014,0.146-0.024,0.221-0.033c0.032-0.005,0.062-0.011,0.094-0.014
			c0.107-0.011,0.215-0.017,0.325-0.017c0.111,0,0.22,0.006,0.328,0.017c0.751,0.076,1.426,0.412,1.933,0.916
			c0.002,0.002,0.004,0.004,0.006,0.006c0.053,0.053,0.103,0.11,0.152,0.167c0.015,0.017,0.03,0.031,0.044,0.048l0-0.001
			l18.017,21.239V59.022v0c0-1.772,1.437-3.21,3.21-3.21c1.773,0,3.21,1.438,3.21,3.21
			C483.271,59.021,483.271,86.948,483.271,86.948C483.271,86.948,483.271,86.948,483.271,86.948z"/>
		<path fill="#ECF0F1" d="M542.087,86.948c0,1.772-1.437,3.209-3.21,3.209c-1.249,0-2.33-0.715-2.86-1.757l-0.002,0.001
			l-3.312-6.521h-8.678c-1.773,0-3.21-1.437-3.21-3.21s1.437-3.21,3.21-3.21h5.417l-4.75-9.351L513.37,88.401l-0.002-0.001
			c-0.531,1.042-1.611,1.757-2.86,1.757c-1.773,0-3.21-1.438-3.21-3.21c0-0.523,0.127-1.016,0.35-1.452l-0.002-0.001l14.061-27.682
			c0.468-1.193,1.627-2.039,2.986-2.039c1.359,0,2.519,0.846,2.987,2.039l14.06,27.682l-0.002,0.001
			C541.959,85.932,542.087,86.425,542.087,86.948z"/>
		<path fill="#ECF0F1" d="M571.354,86.948c0,1.773-1.438,3.21-3.211,3.21h-16.531c-1.773,0-3.21-1.437-3.21-3.21V59.021
			c0-1.773,1.437-3.21,3.21-3.21c1.772,0,3.21,1.438,3.21,3.21v24.717h13.321C569.917,83.738,571.354,85.176,571.354,86.948z"/>
		<path fill="#ECF0F1" d="M603.194,67.988c0,1.254-0.191,2.474-0.548,3.62c-0.356,1.146-0.878,2.219-1.534,3.19
			c-1.312,1.942-3.165,3.481-5.354,4.408c-1.458,0.617-3.066,0.958-4.737,0.958c-0.001,0-8.309,0-8.31,0v6.784
			c0,1.773-1.437,3.21-3.21,3.21c-1.772,0-3.21-1.437-3.21-3.21V59.021c0-1.773,1.437-3.21,3.21-3.21h11.517c0,0,0.001,0,0.002,0
			c1.253,0,2.472,0.191,3.617,0.548c1.146,0.356,2.219,0.877,3.19,1.534c1.941,1.312,3.481,3.165,4.408,5.354
			C602.854,64.706,603.194,66.315,603.194,67.988z M596.774,67.988c-0.001-0.603-0.091-1.175-0.259-1.713
			c-0.167-0.539-0.412-1.043-0.723-1.503c-0.621-0.921-1.507-1.655-2.536-2.09c-0.687-0.29-1.436-0.451-2.239-0.451h-8.306v11.513
			h8.306c0.603,0,1.175-0.091,1.713-0.259c0.538-0.167,1.043-0.412,1.503-0.723c0.921-0.622,1.655-1.507,2.09-2.536
			C596.613,69.541,596.773,68.792,596.774,67.988z"/>
		<path fill="#ECF0F1" d="M634.056,86.948c0,1.773-1.438,3.21-3.211,3.21h-18.617c-0.598,0-1.156-0.166-1.635-0.45
			c-0.942-0.56-1.576-1.584-1.576-2.76V59.021c0-0.006,0.001-0.013,0.001-0.019c0-0.006-0.001-0.012-0.001-0.019
			c0-1.773,1.438-3.21,3.211-3.21c0.158,0,0.312,0.016,0.466,0.038h18.151c1.773,0,3.211,1.438,3.211,3.21s-1.438,3.21-3.211,3.21
			h-15.407v7.543h12.679l0,0c1.773,0,3.211,1.437,3.211,3.21c0,1.773-1.438,3.209-3.211,3.209h-12.679v7.544h15.407
			C632.618,83.738,634.056,85.176,634.056,86.948z"/>
		<path fill="#ECF0F1" d="M666.938,84.987c0.42,0.542,0.673,1.221,0.673,1.961c0,1.772-1.438,3.209-3.211,3.209
			c-1.032,0-1.949-0.49-2.537-1.248l-0.002,0.002l-8.003-10.353h-7.854v8.39c0,1.772-1.438,3.209-3.21,3.209
			c-1.773,0-3.211-1.437-3.211-3.209V59.021c0,0,0,0,0,0c0-1.773,1.438-3.21,3.211-3.21h13.441c0.001,0,0.001,0,0.002,0
			c6.288,0,11.374,5.104,11.372,11.374c0.001,4.476-2.601,8.421-6.488,10.273l5.817,7.526L666.938,84.987z M646.004,72.139h9.396
			v0.003c0.019,0,0.036-0.002,0.055-0.002c-0.007,0-0.014,0-0.021,0h-0.034c0.011,0,0.021,0,0.033,0c0.01,0,0.02,0,0.031,0h0.773
			c0.52,0,1.011-0.079,1.474-0.223c5.428-1.688,4.134-9.682-1.474-9.686h-10.232L646.004,72.139L646.004,72.139z M655.586,72.143
			c-0.032-0.001-0.065-0.001-0.099-0.002c0.072,0.001,0.142,0.006,0.212,0.011C655.662,72.148,655.624,72.145,655.586,72.143z"/>
		<path fill="#ECF0F1" d="M680.069,86.853h-0.003c0,0.019,0.003,0.035,0.003,0.054c0,1.772-1.438,3.209-3.211,3.209
			c-1.772,0-3.21-1.437-3.21-3.209c0-0.019,0.003-0.035,0.003-0.054h-0.003V58.926c0-1.773,1.438-3.21,3.21-3.21
			c1.773,0,3.211,1.437,3.211,3.21V86.853L680.069,86.853z"/>
		<path fill="#ECF0F1" d="M716.652,86.948C716.652,86.949,716.652,86.949,716.652,86.948c0,0.039-0.001,0.076-0.003,0.114h-0.003
			c-0.062,1.72-1.47,3.096-3.204,3.096c-0.986,0-1.867-0.445-2.457-1.145v0.002l-18.023-21.247v19.181
			c0,1.772-1.437,3.209-3.21,3.209c-1.772,0-3.21-1.437-3.21-3.209V59.021c0-0.041,0.001-0.081,0.002-0.121
			c0.002-0.035,0.007-0.069,0.01-0.104c0.004-0.054,0.008-0.107,0.014-0.16c0.007-0.052,0.016-0.103,0.023-0.153
			c0.009-0.055,0.019-0.108,0.03-0.163c0.011-0.048,0.024-0.096,0.037-0.144c0.015-0.053,0.029-0.106,0.047-0.159
			c0.015-0.047,0.032-0.092,0.05-0.137c0.02-0.051,0.038-0.102,0.061-0.151c0.02-0.045,0.042-0.089,0.063-0.133
			c0.023-0.047,0.048-0.095,0.073-0.141c0.024-0.044,0.052-0.086,0.078-0.129c0.027-0.043,0.054-0.087,0.083-0.129
			c0.029-0.042,0.062-0.084,0.093-0.125c0.03-0.04,0.06-0.079,0.091-0.117c0.035-0.041,0.072-0.08,0.109-0.119
			c0.032-0.035,0.063-0.07,0.097-0.103c0.04-0.04,0.082-0.076,0.124-0.113c0.034-0.03,0.067-0.062,0.103-0.09
			c0.045-0.036,0.092-0.07,0.139-0.104c0.035-0.025,0.07-0.053,0.106-0.077c0.05-0.033,0.101-0.063,0.152-0.094
			c0.037-0.021,0.073-0.044,0.11-0.064c0.054-0.029,0.109-0.054,0.165-0.08c0.038-0.018,0.074-0.037,0.113-0.053
			c0.059-0.024,0.118-0.044,0.179-0.065c0.037-0.014,0.075-0.029,0.114-0.041c0.062-0.02,0.128-0.034,0.192-0.049
			c0.037-0.009,0.074-0.021,0.112-0.028c0.072-0.014,0.146-0.024,0.221-0.033c0.032-0.005,0.062-0.011,0.095-0.014
			c0.106-0.011,0.215-0.017,0.324-0.017c0.111,0,0.221,0.006,0.328,0.017c0.751,0.076,1.426,0.412,1.934,0.916
			c0.002,0.002,0.004,0.004,0.006,0.006c0.054,0.053,0.103,0.11,0.152,0.167c0.015,0.017,0.03,0.031,0.044,0.048v-0.001
			l18.017,21.239V59.022v0c0-1.772,1.437-3.21,3.21-3.21s3.21,1.438,3.21,3.21C716.652,59.021,716.652,86.948,716.652,86.948
			L716.652,86.948z"/>
	</g>
</g>
</svg>
