<?xml version="1.0" encoding="utf-8"?>
<!-- Generator: Adobe Illustrator 16.0.0, SVG Export Plug-In . SVG Version: 6.00 Build 0)  -->
<!DOCTYPE svg PUBLIC "-//W3C//DTD SVG 1.1//EN" "http://www.w3.org/Graphics/SVG/1.1/DTD/svg11.dtd">
<svg version="1.1" id="Layer_1" xmlns="http://www.w3.org/2000/svg" xmlns:xlink="http://www.w3.org/1999/xlink" x="0px" y="0px"
	 width="64px" height="64px" viewBox="-9.5 -9.5 64 64" enable-background="new -9.5 -9.5 64 64" xml:space="preserve">
<path fill="#027CB5" d="M54.5,22.5c0,17.667-14.326,32-32.007,32C4.826,54.5-9.5,40.167-9.5,22.5c0-17.667,14.326-32,31.993-32
	C40.174-9.5,54.5,4.833,54.5,22.5z"/>
<g>
	<path fill="#FFFFFF" d="M4.486,16.094h7.602v24.433H4.486V16.094z M8.289,3.949c2.429,0,4.402,1.972,4.402,4.403
		c0,2.43-1.973,4.405-4.402,4.405c-2.439,0-4.406-1.972-4.406-4.405C3.883,5.921,5.85,3.949,8.289,3.949"/>
	<path fill="#FFFFFF" d="M16.851,16.094h7.28v3.34h0.103c1.014-1.921,3.49-3.946,7.187-3.946c7.688,0,9.107,5.059,9.107,11.64
		v13.399h-7.593v-11.88c0-2.834-0.049-6.479-3.945-6.479c-3.95,0-4.553,3.087-4.553,6.275v12.085h-7.586V16.094z"/>
</g>
</svg>
