<?xml version="1.0" encoding="UTF-8" standalone="no"?>
<svg
   xmlns:dc="http://purl.org/dc/elements/1.1/"
   xmlns:cc="http://creativecommons.org/ns#"
   xmlns:rdf="http://www.w3.org/1999/02/22-rdf-syntax-ns#"
   xmlns:svg="http://www.w3.org/2000/svg"
   xmlns="http://www.w3.org/2000/svg"
   id="svg8"
   version="1.1"
   viewBox="0 0 189.83026 20.637499"
   height="20.637499mm"
   width="189.83026mm">
  <defs
     id="defs2" />
  <metadata
     id="metadata5">
    <rdf:RDF>
      <cc:Work
         rdf:about="">
        <dc:format>image/svg+xml</dc:format>
        <dc:type
           rdf:resource="http://purl.org/dc/dcmitype/StillImage" />
        <dc:title></dc:title>
      </cc:Work>
    </rdf:RDF>
  </metadata>
  <g
     transform="translate(-11.179827,-161.86702)"
     id="layer1">
    <text
       id="text3701"
       y="49.80357"
       x="62.744045"
       style="font-style:normal;font-variant:normal;font-weight:800;font-stretch:normal;font-size:10.58333302px;line-height:1.25;font-family:'SF Pro Text';-inkscape-font-specification:'SF Pro Text Ultra-Bold';letter-spacing:0px;word-spacing:0px;fill:#000000;fill-opacity:1;stroke:none;stroke-width:0.26458332px;stroke-linecap:butt;stroke-linejoin:miter;stroke-opacity:1"
       xml:space="preserve"><tspan
         style="font-style:normal;font-variant:normal;font-weight:800;font-stretch:normal;font-family:'SF Pro Text';-inkscape-font-specification:'SF Pro Text Ultra-Bold';stroke-width:0.26458332px"
         y="59.570637"
         x="62.744045"
         id="tspan3699" /></text>
    <g
       transform="translate(-70.303571,139.09524)"
       id="text3713"
       style="font-style:normal;font-weight:normal;font-size:10.58333302px;line-height:1.25;font-family:sans-serif;letter-spacing:0px;word-spacing:0px;fill:#000000;fill-opacity:1;stroke:none;stroke-width:0.26458332px;stroke-linecap:butt;stroke-linejoin:miter;stroke-opacity:1"
       aria-label="IDAN ALPER.in">
      <path
         id="path3715"
         style="font-style:normal;font-variant:normal;font-weight:800;font-stretch:normal;font-size:25.39999962px;font-family:'SF Pro Text';-inkscape-font-specification:'SF Pro Text Ultra-Bold';stroke-width:0.26458332px"
         d="M 86.035058,43 V 25.103418 h -4.55166 V 43 Z" />
      <path
         id="path3717"
         style="font-style:normal;font-variant:normal;font-weight:800;font-stretch:normal;font-size:25.39999962px;font-family:'SF Pro Text';-inkscape-font-specification:'SF Pro Text Ultra-Bold';stroke-width:0.26458332px"
         d="M 90.264257,25.103418 V 43 h 7.515821 c 5.382612,0 8.371582,-3.249414 8.371582,-9.128125 0,-5.593457 -3.03857,-8.768457 -8.371582,-8.768457 z m 4.55166,3.658692 h 2.145606 c 2.864941,0 4.551657,1.860351 4.551657,5.196582 0,3.54707 -1.599899,5.382617 -4.551657,5.382617 h -2.145606 z" />
      <path
         id="path3719"
         style="font-style:normal;font-variant:normal;font-weight:800;font-stretch:normal;font-size:25.39999962px;font-family:'SF Pro Text';-inkscape-font-specification:'SF Pro Text Ultra-Bold';stroke-width:0.26458332px"
         d="m 120.19111,43 h 4.96094 l -6.01514,-17.896582 h -5.56865 L 107.56553,43 h 4.51445 l 1.15342,-3.931543 h 5.8415 z m -4.12998,-13.86582 h 0.23565 l 1.92236,6.660058 h -4.11758 z" />
      <path
         id="path3721"
         style="font-style:normal;font-variant:normal;font-weight:800;font-stretch:normal;font-size:25.39999962px;font-family:'SF Pro Text';-inkscape-font-specification:'SF Pro Text Ultra-Bold';stroke-width:0.26458332px"
         d="M 132.48183,43 V 32.830078 h 0.23565 L 140.19609,43 h 3.60908 V 25.103418 h -4.31601 v 10.070703 h -0.23565 L 131.7997,25.103418 h -3.63388 V 43 Z" />
      <path
         id="path3723"
         style="font-style:normal;font-variant:normal;font-weight:800;font-stretch:normal;font-size:25.39999962px;font-family:'SF Pro Text';-inkscape-font-specification:'SF Pro Text Ultra-Bold';stroke-width:0.26458332px"
         d="m 165.68291,43 h 4.96094 l -6.01514,-17.896582 h -5.56865 L 153.05733,43 h 4.51445 l 1.15342,-3.931543 h 5.8415 z m -4.12998,-13.86582 h 0.23565 l 1.92236,6.660058 h -4.11758 z" />
      <path
         id="path3725"
         style="font-style:normal;font-variant:normal;font-weight:800;font-stretch:normal;font-size:25.39999962px;font-family:'SF Pro Text';-inkscape-font-specification:'SF Pro Text Ultra-Bold';stroke-width:0.26458332px"
         d="m 185.81191,39.24209 h -7.60263 V 25.103418 h -4.55166 V 43 h 12.15429 z" />
      <path
         id="path3727"
         style="font-style:normal;font-variant:normal;font-weight:800;font-stretch:normal;font-size:25.39999962px;font-family:'SF Pro Text';-inkscape-font-specification:'SF Pro Text Ultra-Bold';stroke-width:0.26458332px"
         d="M 189.13574,25.103418 V 43 h 4.55166 v -5.246191 h 3.01377 c 3.98115,0 6.72207,-2.492871 6.72207,-6.300391 0,-3.844726 -2.60449,-6.35 -6.44922,-6.35 z m 4.55166,3.497461 h 2.0836 c 1.92236,0 3.05097,0.979785 3.05097,2.864941 0,1.860352 -1.14101,2.85254 -3.07578,2.85254 h -2.05879 z" />
      <path
         id="path3729"
         style="font-style:normal;font-variant:normal;font-weight:800;font-stretch:normal;font-size:25.39999962px;font-family:'SF Pro Text';-inkscape-font-specification:'SF Pro Text Ultra-Bold';stroke-width:0.26458332px"
         d="m 219.01299,39.341309 h -7.71426 v -3.658692 h 7.25537 v -3.348632 h -7.25537 V 28.76211 h 7.71426 V 25.103418 H 206.74707 V 43 h 12.26592 z" />
      <path
         id="path3731"
         style="font-style:normal;font-variant:normal;font-weight:800;font-stretch:normal;font-size:25.39999962px;font-family:'SF Pro Text';-inkscape-font-specification:'SF Pro Text Ultra-Bold';stroke-width:0.26458332px"
         d="m 227.47138,28.538867 h 2.67891 c 1.62471,0 2.67891,0.979786 2.67891,2.505274 0,1.550293 -0.99219,2.480469 -2.66651,2.480469 h -2.69131 z m 0,8.19795 h 2.35645 L 232.89121,43 h 5.10976 l -3.57187,-6.93291 c 1.95957,-0.855762 3.05097,-2.864941 3.05097,-5.060156 0,-3.695899 -2.50527,-5.903516 -6.68486,-5.903516 h -7.87549 V 43 h 4.55166 z" />
      <path
         id="path3733"
         style="font-style:normal;font-variant:normal;font-weight:800;font-stretch:normal;font-size:25.39999962px;font-family:'SF Pro Text';-inkscape-font-specification:'SF Pro Text Ultra-Bold';stroke-width:0.26458332px"
         d="m 243.76806,43.409277 c 1.57509,0 2.50527,-0.967382 2.50527,-2.356445 0,-1.401465 -0.93018,-2.368848 -2.50527,-2.368848 -1.5627,0 -2.49287,0.967383 -2.49287,2.368848 0,1.389063 0.93017,2.356445 2.49287,2.356445 z" />
      <path
         id="path3735"
         style="font-style:normal;font-variant:normal;font-weight:800;font-stretch:normal;font-size:25.39999962px;font-family:'SF Pro Text';-inkscape-font-specification:'SF Pro Text Ultra-Bold';stroke-width:0.26458332px"
         d="m 250.25449,43 h 4.39043 V 29.196192 h -4.39043 z m 2.19522,-15.651758 c 1.27744,0 2.33164,-1.004589 2.33164,-2.282031 0,-1.277441 -1.0542,-2.294433 -2.33164,-2.294433 -1.27744,0 -2.33164,1.016992 -2.33164,2.294433 0,1.277442 1.0542,2.282031 2.33164,2.282031 z" />
      <path
         id="path3737"
         style="font-style:normal;font-variant:normal;font-weight:800;font-stretch:normal;font-size:25.39999962px;font-family:'SF Pro Text';-inkscape-font-specification:'SF Pro Text Ultra-Bold';stroke-width:0.26458332px"
         d="m 258.09276,43 h 4.37803 v -7.887891 c 0,-1.587499 0.85576,-2.654101 2.28203,-2.654101 1.48828,0 2.17041,0.930176 2.17041,2.604492 V 43 h 4.39043 v -8.917285 c 0,-3.311426 -1.5999,-5.208984 -4.67568,-5.208984 -1.99678,0 -3.43545,1.00459 -4.04317,2.567285 h -0.23564 v -2.244824 h -4.26641 z" />
    </g>
  </g>
</svg>
